<svg width="1440" height="1172" viewBox="0 0 1440 1172" fill="none" xmlns="http://www.w3.org/2000/svg">
    <path opacity="0.30385" d="M567.473 1095.42C621.503 1082.99 646.285 1060.71 654.615 1031.89C658.993 1016.74 658.789 999.905 656.037 981.94C653.285 963.975 647.973 944.814 642.078 925.016C640.798 920.716 639.491 916.387 638.176 912.033C627.362 876.222 616.037 838.718 615.189 802.304C614.24 761.554 626.42 722.217 667.295 688.293C708.555 654.049 731.057 620.626 743.896 588.337C756.727 556.067 759.882 524.983 762.529 495.511C762.634 494.342 762.738 493.176 762.842 492.012C765.363 463.796 767.744 437.136 778.021 412.129C788.7 386.146 807.936 361.888 844.914 339.67C919.142 295.068 960.135 279.099 1009.14 274.222C1033.69 271.781 1060.26 272.119 1094.07 273.072C1099.8 273.233 1105.74 273.412 1111.92 273.599C1142.13 274.51 1177.91 275.59 1222.19 275.59C1275.8 275.59 1317.06 252.998 1351.29 224.848C1368.41 210.778 1383.78 195.309 1398.06 180.572C1400.07 178.497 1402.06 176.436 1404.03 174.396C1416.06 161.938 1427.34 150.255 1438.34 140.639C1451.13 129.446 1463.44 121.146 1475.95 117.698C1488.4 114.267 1501.13 115.621 1514.87 123.905C1528.65 132.216 1543.47 147.514 1559.97 172.016C1576.46 196.508 1594.59 230.129 1615.03 275.004C1696.71 454.363 1696.73 659.604 1676.29 820.083C1666.07 900.31 1650.75 969.32 1637.97 1018.27C1631.59 1042.75 1625.84 1062.21 1621.69 1075.54C1619.62 1082.21 1617.94 1087.35 1616.79 1090.82C1616.21 1092.56 1615.76 1093.88 1615.46 1094.76C1615.37 1095.02 1615.29 1095.24 1615.23 1095.42H567.473ZM356.398 1084.78C374.011 1088.94 391.498 1092.54 408.756 1095.42H-186.51C-186.614 1095.33 -186.746 1095.21 -186.905 1095.06C-187.341 1094.64 -187.975 1094.03 -188.753 1093.21C-190.308 1091.57 -192.436 1089.13 -194.713 1085.96C-199.269 1079.61 -204.405 1070.31 -206.75 1058.51C-211.424 1035.01 -205.074 1001.25 -159.977 960.768C-148.898 950.823 -133.217 946.113 -113.63 945.501C-94.0457 944.888 -70.6663 948.378 -44.322 954.722C3.86667 966.324 61.7675 987.419 124.175 1010.16C130.01 1012.28 135.884 1014.42 141.792 1016.57C210.875 1041.68 284.723 1067.86 356.398 1084.78ZM436.385 1097.42H546.567C512.182 1102.77 475.051 1102.16 436.385 1097.42Z" stroke="white" stroke-width="2"/>
    <path opacity="0.30385" d="M574.944 1046.5C626.152 1035.68 652.995 1018.39 666.36 996.564C680.13 974.073 679.508 946.881 676.754 917.356C676.312 912.62 675.815 907.824 675.313 902.975C672.678 877.544 669.895 850.672 674.112 823.587C679.126 791.376 694.048 758.861 730.991 728.221C768.12 697.426 784.849 664.33 791.128 630.751C797.403 597.196 793.235 563.186 788.632 530.586C788.329 528.442 788.025 526.304 787.721 524.173C783.403 493.867 779.279 464.922 783.428 438.715C787.86 410.717 801.74 385.836 835.047 365.837C901.773 325.77 963.688 325.757 1032.97 335.788C1051.7 338.501 1070.98 341.95 1091.04 345.539C1145.14 355.217 1204.9 365.908 1274.95 365.908C1323.1 365.908 1360.13 343.91 1390.85 316.041C1406.22 302.108 1420.01 286.701 1432.84 271.833C1435.64 268.581 1438.4 265.355 1441.12 262.176C1450.84 250.815 1460.04 240.056 1469.03 230.835C1480.54 219.031 1491.65 209.8 1502.98 205.074C1514.29 200.361 1525.82 200.124 1538.22 206.341C1550.66 212.573 1564.01 225.308 1578.86 246.62C1593.7 267.925 1610.03 297.762 1628.43 338.145C1701.98 499.564 1677.14 676.685 1633.87 813.505C1612.24 881.909 1586.01 940.219 1565.18 981.429C1554.77 1002.03 1545.71 1018.36 1539.25 1029.54C1536.02 1035.13 1533.45 1039.42 1531.68 1042.33C1530.79 1043.78 1530.11 1044.88 1529.65 1045.62C1529.42 1045.99 1529.24 1046.27 1529.12 1046.45L1529.09 1046.5H574.944ZM564.764 1047.5C470.205 1065.28 347.801 1064.03 232.877 1062.86C216.488 1062.69 200.252 1062.53 184.27 1062.42C119.239 1061.98 58.4238 1062.48 8.76491 1067.67C-16.0653 1070.26 -38.1215 1074.03 -56.5295 1079.44C-74.9324 1084.85 -89.7245 1091.92 -99.9945 1101.13C-110.18 1110.26 -117.707 1116.25 -123.083 1119.74C-125.773 1121.48 -127.903 1122.59 -129.545 1123.16C-131.208 1123.73 -132.262 1123.72 -132.886 1123.39C-133.47 1123.09 -133.838 1122.43 -133.892 1121.25C-133.945 1120.06 -133.673 1118.47 -133.103 1116.54C-131.968 1112.68 -129.697 1107.59 -126.776 1101.9C-120.937 1090.54 -112.55 1076.89 -105.617 1066.07C-102.151 1060.66 -99.0508 1055.96 -96.8169 1052.62C-95.7001 1050.95 -94.7999 1049.61 -94.179 1048.7C-93.8686 1048.24 -93.628 1047.88 -93.465 1047.65L-93.3656 1047.5H564.764Z" stroke="white"/>
    <path opacity="0.30385" d="M1598.95 1002.73C1598.91 1002.83 1598.87 1002.92 1598.83 1003H668.91C684.586 995.073 695.108 985.677 702.034 975.057C715.063 955.076 715.187 931 713.41 904.997C713.111 900.634 712.76 896.216 712.404 891.75C710.632 869.499 708.765 846.049 712.952 822.305C717.966 793.869 731.677 765.011 764.818 737.528C831.079 682.58 913.326 691.807 994.443 705.946C1001.7 707.211 1008.95 708.515 1016.17 709.815C1049.27 715.77 1081.9 721.641 1112.76 723.27C1150.37 725.257 1185.51 720.955 1215.84 702.748C1246.25 684.487 1258.92 656.896 1263.55 625.948C1267.42 600.073 1265.69 571.745 1264.03 544.476C1263.71 539.198 1263.39 533.961 1263.11 528.788C1261.4 496.772 1261.37 467.331 1272.38 445.885C1277.86 435.205 1286.09 426.501 1298.27 420.452C1310.47 414.394 1326.7 410.977 1348.19 410.977C1422.62 410.977 1455.36 357.295 1478.61 319.183C1482.54 312.736 1486.2 306.735 1489.75 301.514C1495.92 292.425 1501.63 285.838 1507.7 283.127C1510.69 281.789 1513.77 281.394 1517.06 282.125C1520.38 282.861 1523.98 284.75 1527.97 288.091C1535.97 294.788 1545.34 307.153 1556.87 327.007C1568.39 346.84 1582.02 374.062 1598.58 410.391C1664.73 555.522 1664.74 703.816 1648.19 815.866C1639.92 871.887 1627.51 918.832 1617.17 951.768C1612 968.236 1607.35 981.201 1603.99 990.045C1602.31 994.467 1600.96 997.859 1600.02 1000.14C1599.55 1001.29 1599.19 1002.15 1598.95 1002.73ZM-93.2776 1006.62C-92.9415 1005.91 -92.6811 1005.37 -92.5043 1005H659.852C647.517 1010.26 632.372 1014.77 613.806 1018.44C542.183 1032.59 435.065 1042.97 324.43 1053.7C284.162 1057.6 243.429 1061.55 203.771 1065.74C129.49 1073.59 58.995 1082.3 2.47493 1093.16C-25.7846 1098.59 -50.5742 1104.56 -70.6077 1111.24C-90.6154 1117.91 -105.985 1125.33 -115.313 1133.69C-119.875 1137.78 -123.762 1140.84 -127.04 1142.98C-130.329 1145.13 -132.951 1146.32 -134.99 1146.74C-137.007 1147.17 -138.346 1146.83 -139.26 1146.07C-140.214 1145.27 -140.907 1143.84 -141.246 1141.66C-141.924 1137.3 -141.08 1130.59 -139.106 1122.31C-137.14 1114.08 -134.089 1104.42 -130.458 1094.23C-123.197 1073.85 -113.642 1051.4 -105.898 1034.04C-102.026 1025.36 -98.6094 1017.96 -96.1605 1012.73C-94.9361 1010.11 -93.9537 1008.04 -93.2776 1006.62Z" stroke="white" stroke-width="2"/>
    <path opacity="0.30385" d="M1599.29 1002.72C1599.21 1003.05 1599.15 1003.31 1599.1 1003.5H812.891C806.692 990.674 798.667 977.097 790.251 963.073C789.421 961.69 788.587 960.302 787.75 958.91C770.007 929.388 751.159 898.028 744.084 867.383C740.382 851.352 739.91 835.544 744.493 820.316C749.074 805.092 758.72 790.408 775.319 776.643C808.519 749.111 851.62 739.818 899.551 740.28C947.484 740.742 1000.18 750.958 1052.52 762.383C1061.59 764.364 1070.66 766.381 1079.68 768.389C1122.7 777.962 1164.85 787.345 1203.21 791.688C1249.6 796.94 1290.55 794.837 1320.78 776.686C1351.1 758.486 1358.86 728.184 1356.24 693.156C1353.89 661.541 1343.07 625.955 1332.66 591.714C1331.55 588.041 1330.43 584.383 1329.34 580.748C1323.68 561.971 1318.43 543.78 1315.09 527.049C1311.75 510.314 1310.33 495.081 1312.29 482.212C1314.24 469.358 1319.56 458.887 1329.71 451.615C1339.87 444.332 1354.94 440.211 1376.48 440.211C1419.68 440.211 1450.5 437.76 1473.81 435.645C1476.4 435.41 1478.89 435.18 1481.3 434.957C1500.6 433.173 1514.33 431.904 1525.97 433.088C1539.02 434.415 1549.44 438.826 1562.12 449.133C1574.82 459.461 1589.76 475.689 1611.81 500.644C1633.74 525.454 1643.97 569.254 1646.92 621.141C1649.86 672.996 1645.52 732.804 1638.42 789.515C1631.32 846.222 1621.47 899.815 1613.39 939.231C1609.35 958.939 1605.75 975.102 1603.17 986.338C1601.88 991.956 1600.83 996.342 1600.12 999.323C1599.76 1000.81 1599.48 1001.95 1599.29 1002.72ZM-92.8684 1004.78C-92.8323 1004.67 -92.8007 1004.58 -92.7738 1004.5H812.263C812.75 1005.51 813.226 1006.52 813.688 1007.53C820.059 1021.36 824.057 1034.19 823.887 1045.67C823.717 1057.12 819.403 1067.26 809.075 1075.76C798.723 1084.27 782.305 1091.14 757.903 1095.96C709.074 1105.61 636.034 1110.04 552.759 1112.3C492.787 1113.92 427.529 1114.41 362.211 1114.9C336.841 1115.09 311.461 1115.28 286.379 1115.53C196.73 1116.45 110.88 1118.22 42.8541 1123.87C8.84186 1126.7 -20.7294 1130.49 -44.0989 1135.65C-67.4428 1140.79 -84.6879 1147.31 -93.9633 1155.63C-98.5329 1159.73 -102.515 1162.71 -105.964 1164.7C-109.417 1166.7 -112.31 1167.7 -114.706 1167.86C-117.084 1168.02 -118.983 1167.37 -120.495 1166.03C-122.021 1164.68 -123.191 1162.6 -124.024 1159.86C-125.692 1154.37 -125.958 1146.39 -125.214 1136.86C-124.47 1127.34 -122.724 1116.32 -120.402 1104.77C-115.759 1081.68 -108.824 1056.53 -103.048 1037.15C-100.16 1027.45 -97.5627 1019.21 -95.6873 1013.38C-94.7496 1010.47 -93.9924 1008.17 -93.4698 1006.59C-93.2084 1005.8 -93.0057 1005.19 -92.8684 1004.78Z" fill="#429636" stroke="white"/>
    <path opacity="0.30385" d="M89.5463 -125.5C144.266 -125.5 190.494 -111.766 227.263 -85.0514C264.033 -58.3371 291.38 -18.6151 308.289 33.4261C316.728 59.398 314.053 76.4271 304.09 88.4391C294.084 100.502 276.641 107.628 255.228 113.541C245.405 116.253 234.774 118.703 223.676 121.261C222.691 121.489 221.702 121.716 220.709 121.946C208.543 124.754 195.862 127.728 183.133 131.34C157.675 138.564 131.99 148.349 109.752 164.506C87.5426 180.642 65.1038 203.133 42.5728 226.757C37.9593 231.594 33.3419 236.478 28.7215 241.366C10.7654 260.362 -7.23691 279.406 -25.2407 295.906C-47.8806 316.656 -70.4698 333.331 -92.8987 340.814C-115.292 348.286 -137.532 346.599 -159.558 330.595C-181.619 314.568 -192.865 294.537 -196.817 271.873C-200.773 249.189 -197.424 223.841 -190.234 197.198C-183.046 170.557 -172.03 142.665 -160.684 114.899C-159.216 111.306 -157.743 107.715 -156.271 104.13C-146.375 80.0154 -136.575 56.1331 -129.197 33.4261C-112.287 -18.6151 -84.94 -58.3371 -48.1708 -85.0514C-11.4017 -111.766 34.827 -125.5 89.5463 -125.5Z" stroke="white"/>
    <path opacity="0.30385" d="M89.1808 -125C143.91 -125 177.585 -116.443 201.822 -95.0971C226.107 -73.7082 241.09 -39.3416 258.031 12.7973C266.467 38.7637 266.583 56.3493 260.874 69.1776C255.168 81.9986 243.538 90.3108 227.87 97.4794C218.271 101.871 207.285 105.783 195.336 110.037C187.727 112.747 179.727 115.595 171.447 118.795C150.232 126.993 127.36 137.439 105.093 153.617C83.6689 169.182 61.9827 188.478 40.2031 207.856C39.3967 208.573 38.5902 209.291 37.7836 210.008C15.1722 230.122 -7.53603 250.182 -30.2321 266.216C-52.9336 282.254 -75.5406 294.203 -97.9328 298.166C-120.277 302.12 -142.46 298.134 -164.403 282.191C-186.417 266.197 -197.253 249.254 -200.721 231.27C-204.196 213.247 -200.302 194.024 -192.534 173.42C-185.849 155.689 -176.337 137.037 -166.291 117.338C-164.66 114.14 -163.016 110.915 -161.367 107.662C-149.572 84.3931 -137.58 59.7215 -129.087 33.5806C-112.204 -18.3794 -84.9111 -58.0056 -48.2425 -84.6469C-11.5738 -111.288 34.5468 -125 89.1808 -125Z" fill="#429636" stroke="white" stroke-width="2"/>
    <path opacity="0.30385" d="M118.344 -158.027C172.808 -158.027 225.521 -130.248 268.888 -89.3777C312.248 -48.5129 346.167 5.35121 363.049 57.309C367.247 70.2301 367.926 80.5544 365.836 88.8812C363.753 97.1843 358.89 103.607 351.793 108.696C337.512 118.936 314.312 123.696 286.999 127.231C277.872 128.412 268.294 129.456 258.466 130.527C239.003 132.648 218.563 134.875 198.722 138.487C168.838 143.926 140.107 152.534 117.756 168.773C95.4394 184.987 72.1243 214.071 48.3649 247.433C37.0966 263.256 25.7099 280.068 14.2683 296.962L12.3742 299.758C0.292343 317.595 -11.8475 335.466 -23.9854 352.33C-48.2792 386.081 -72.4938 415.687 -96.1148 432.845C-107.917 441.418 -119.504 446.833 -130.823 448.15C-142.109 449.462 -153.21 446.711 -164.104 438.796C-185.948 422.925 -196.916 396.321 -200.456 363.488C-203.994 330.662 -200.087 291.768 -192.338 251.559C-179.447 184.674 -155.972 114.35 -138.683 62.5611C-135.185 52.0813 -131.939 42.3605 -129.087 33.5806C-95.3272 -70.3205 9.23567 -158.027 118.344 -158.027Z" stroke="white" stroke-width="2"/>
</svg>
